<svg width="111" height="49" viewBox="0 0 111 49" fill="none" xmlns="http://www.w3.org/2000/svg">
<path fill-rule="evenodd" clip-rule="evenodd" d="M21.349 3.74854L21.5217 4.97354C16.0087 16.1088 23.0387 15.2023 23.0387 15.2023L23.9267 15.043L24.0623 15.3125C37.1233 13.8425 44.2643 20.5923 44.2643 20.5923C45.214 4.61829 21.349 3.74854 21.349 3.74854Z" fill="#F8B829"/>
<path d="M13.1473 41.3683C12.5923 45.0433 15.614 47.1748 16.095 45.9988C17.427 44.2715 17.8956 44.7738 18.5616 42.1768C18.8048 41.8543 19.0864 41.5622 19.4003 41.307C20.0745 40.6129 20.7241 39.9024 21.349 39.1755C23.1921 37.1045 24.7666 34.8123 26.0356 32.3523C27.4436 29.8684 27.957 26.982 27.491 24.1693C26.9865 22.7464 26.2671 21.4081 25.3573 20.2003C25.0796 19.5679 24.9529 18.8803 24.9873 18.1913C24.9567 17.1605 24.6456 16.1572 24.087 15.288C23.7986 14.9791 23.5791 14.6132 23.4431 14.2142C23.3071 13.8152 23.2575 13.3921 23.2976 12.9728C23.458 12.0418 23.458 11.123 23.5936 10.192C23.6791 8.45235 23.3583 6.71662 22.6563 5.12052C22.6563 5.12052 21.793 3.60152 21.0283 3.98127C19.6668 3.1251 18.0844 2.67978 16.4732 2.69935C14.8619 2.71892 13.2909 3.20254 11.951 4.09152C11.951 4.09152 -5.71037 15.3003 10.212 36.8358C9.73096 39.6288 11.4453 42.5075 12.7773 44.4185" fill="#005D86"/>
<path d="M21.275 16.7826L18.8823 5.95362C18.8823 5.95362 17.4763 1.78862 13.7763 7.04387L13.1596 6.23537C9.75565 11.0251 5.14298 16.7704 6.16665 22.9934C6.31554 24.142 6.71491 25.2446 7.3369 26.2241C7.95889 27.2037 8.78854 28.0367 9.76798 28.6651C11.2113 29.6606 12.9587 30.1257 14.7098 29.9804C16.4609 29.8351 18.1063 29.0885 19.3633 27.8689C21.2873 26.2764 22.8536 23.0424 21.275 16.7826Z" fill="white"/>
<path fill-rule="evenodd" clip-rule="evenodd" d="M24.0623 15.3495C24.0623 15.3495 35.4829 13.5855 44.2643 20.6293C44.2643 20.6293 36.0009 9.86153 22.8289 11.8583C22.8413 11.8583 21.8916 14.5043 24.0623 15.3495Z" fill="#F19320"/>
<path d="M44.2643 20.6292C44.4964 17.8507 43.7889 15.0745 42.2539 12.7402C42.1306 12.581 41.1809 14.639 41.1686 14.8227C41.1181 15.6811 41.3287 16.5347 41.7729 17.2727C42.4019 18.4242 43.9313 19.3675 44.2396 20.6047" fill="#E95253"/>
<path d="M1.23328 36.1865C2.84757 36.7967 4.60903 36.9119 6.28994 36.5173C8.64561 36.8358 9.87894 37.5708 12.6909 37.8893C16.1319 37.8893 19.5483 37.5218 22.9646 37.2033C24.0746 37.1053 26.5413 36.9705 27.4786 37.8403C28.0213 38.3425 27.8609 39.7023 27.8733 40.4128C25.8345 39.6406 23.6878 39.1861 21.5093 39.0653C19.0426 39.0653 16.4896 39.1755 13.9859 39.151C12.2782 39.156 10.5734 39.0084 8.89228 38.71C7.32594 38.416 5.78428 38.0118 4.21794 37.6933C3.08328 37.4483 1.70194 37.2523 1.23328 36.1865Z" fill="#9B5F48"/>
<path d="M23.2236 38.3914C23.2236 38.7834 22.8783 39.6164 22.5576 39.6164C22.2369 39.6164 21.8916 38.7956 21.8916 38.3914V37.0071C21.8916 36.6151 22.1383 36.2231 22.4589 36.2231C22.6529 36.2526 22.8312 36.3459 22.9654 36.488C23.0996 36.6302 23.1818 36.813 23.1989 37.0071L23.2236 38.3914Z" fill="#969595"/>
<path d="M21.8916 38.5875C21.8916 38.8938 21.6449 39.5308 21.3859 39.5308C21.1269 39.5308 20.8802 38.8938 20.8802 38.5875V37.4973C20.8802 37.191 21.0652 36.8848 21.3242 36.8848C21.4726 36.9076 21.6081 36.9815 21.7073 37.0934C21.8064 37.2053 21.8629 37.3482 21.8669 37.4973L21.8916 38.5875Z" fill="#838383"/>
<path d="M9.65698 38.3914C9.65698 38.7834 10.0023 39.6164 10.323 39.6164C10.6436 39.6164 10.989 38.7956 10.989 38.3914V37.0071C10.989 36.6151 10.7423 36.2231 10.4216 36.2231C10.2277 36.2526 10.0493 36.3459 9.91516 36.488C9.78097 36.6302 9.69874 36.813 9.68165 37.0071L9.65698 38.3914Z" fill="#969595"/>
<path d="M10.9889 38.5875C10.9889 38.8938 11.2356 39.5308 11.4946 39.5308C11.7536 39.5308 12.0002 38.8938 12.0002 38.5875V37.4973C12.0002 37.191 11.8152 36.8848 11.5562 36.8848C11.4079 36.9076 11.2724 36.9815 11.1732 37.0934C11.074 37.2053 11.0176 37.3482 11.0136 37.4973L10.9889 38.5875Z" fill="#838383"/>
<path d="M23.7909 11.6129C24.0869 10.9146 24.6296 8.74636 23.1249 5.01011C22.8536 4.43436 22.1753 3.09911 20.7323 3.78511C20.5226 4.10361 23.3346 5.85536 22.7549 12.0294C22.7549 12.0294 22.0273 14.6141 24.0623 15.3369C23.7594 14.7013 23.6035 14.0065 23.6059 13.3034C23.5629 12.7334 23.6256 12.1604 23.7909 11.6129ZM23.6553 11.8579C23.6553 11.8579 23.6553 11.8579 23.6676 11.8579H23.6553Z" fill="#003B55"/>
<path d="M21.3489 9.33433C21.8916 12.2253 20.4362 13.8668 17.5502 13.9036C15.3302 13.9036 12.0989 13.4381 11.7906 10.7431C11.5316 8.40333 13.0239 5.23058 15.4166 4.52008C18.7342 3.51558 20.8309 6.49233 21.3612 9.33433H21.3489Z" fill="#F8B829"/>
<path d="M19.5852 9.12647C19.6991 9.46671 19.7232 9.83029 19.6551 10.1824C19.587 10.5345 19.4291 10.8634 19.1964 11.1375C18.9637 11.4116 18.6641 11.6219 18.3262 11.7481C17.9883 11.8742 17.6235 11.9122 17.2666 11.8582C15.8606 11.8582 13.8996 11.5275 13.7763 9.82472C13.7102 9.05025 13.8932 8.27493 14.2987 7.61021C14.7042 6.94548 15.3115 6.42558 16.0333 6.12522C18.0189 5.57397 19.2522 7.35022 19.5482 9.07747L19.5852 9.12647Z" fill="#005D86"/>
<path fill-rule="evenodd" clip-rule="evenodd" d="M18.5 8.75872C18.5 9.21519 18.3174 9.65297 17.9924 9.97574C17.6675 10.2985 17.2267 10.4798 16.7671 10.4798C16.3076 10.4798 15.8668 10.2985 15.5418 9.97574C15.2169 9.65297 15.0343 9.21519 15.0343 8.75872C15.0343 8.30225 15.2169 7.86448 15.5418 7.5417C15.8668 7.21893 16.3076 7.0376 16.7671 7.0376C17.2267 7.0376 17.6675 7.21893 17.9924 7.5417C18.3174 7.86448 18.5 8.30225 18.5 8.75872Z" fill="#151410"/>
<path fill-rule="evenodd" clip-rule="evenodd" d="M17.0077 7.66841C17.0077 7.97466 16.7363 7.66841 16.7363 7.66841C16.7363 7.66841 17.0077 7.34991 17.0077 7.66841Z" fill="white"/>
<path fill-rule="evenodd" clip-rule="evenodd" d="M16.0332 7.65641C15.8606 7.65641 15.8236 7.84016 15.7989 8.03616C15.7524 8.05374 15.7104 8.08145 15.6761 8.11725C15.6418 8.15305 15.616 8.19604 15.6007 8.24304C15.5853 8.29005 15.5807 8.33988 15.5873 8.38887C15.5938 8.43787 15.6113 8.48478 15.6386 8.52616C15.6386 8.52616 16.4772 7.74216 16.5389 7.79116C16.4689 7.73463 16.3877 7.69342 16.3005 7.6702C16.2134 7.64698 16.1223 7.64228 16.0332 7.65641Z" fill="white"/>
<path d="M43.5982 35.917C43.6954 35.9148 43.792 35.9333 43.8814 35.9713C43.9707 36.0094 44.0508 36.0661 44.1162 36.1375L45.5715 37.681C43.3639 40.474 39.1335 41.0988 35.9022 39.9105C34.2959 39.2582 32.9248 38.1402 31.9678 36.7023C31.0108 35.2645 30.5122 33.5735 30.5372 31.85C30.4044 30.1039 30.795 28.3578 31.6598 26.8318C32.5245 25.3058 33.8248 24.0682 35.3965 23.275C37.0186 22.5252 38.8275 22.2682 40.5961 22.5363C42.3648 22.8044 44.0142 23.5856 45.3372 24.7818L44.1039 26.4478C43.4379 27.4033 42.4142 26.3498 41.7235 26.019C40.6989 25.5499 39.5562 25.3963 38.4429 25.578C37.3001 25.8128 36.271 26.4249 35.523 27.3146C34.775 28.2043 34.3523 29.3193 34.3235 30.478C34.1419 31.576 34.2486 32.7019 34.6331 33.747C35.0177 34.7921 35.6672 35.7209 36.5189 36.4438C37.492 37.0913 38.6504 37.4079 39.8201 37.3461C40.9898 37.2842 42.1078 36.8473 43.0062 36.1008C43.1773 35.9755 43.3857 35.9108 43.5982 35.917Z" fill="white"/>
<path d="M50.5666 22.1851V40.2416H47.1749V22.1851H50.5666Z" fill="white"/>
<path d="M56.8072 27.7583V40.2533H53.4525V27.7583H56.8072Z" fill="white"/>
<path d="M57.2142 24.1326C57.2142 26.7419 53.0455 26.7541 53.0455 24.1326C53.0455 21.5111 57.2142 21.5111 57.2142 24.1326Z" fill="white"/>
<path d="M68.8075 30.5393C68.2772 31.2498 67.7098 30.8088 67.1178 30.5393C66.3881 30.1301 65.5344 29.9953 64.7128 30.1596C63.0108 30.5393 62.5175 32.2666 62.4682 33.8346C62.4188 35.4026 62.7518 37.1911 64.3058 37.8158C64.7019 37.9661 65.1242 38.0359 65.5479 38.0212C65.9716 38.0065 66.388 37.9075 66.7725 37.7301C67.3768 37.4483 68.2402 36.3826 68.8692 37.2033L69.8312 38.4283C68.962 39.3427 67.8464 39.9894 66.6174 40.2914C65.3884 40.5933 64.0979 40.5376 62.8998 40.1311C61.719 39.6593 60.7141 38.8362 60.023 37.7747C59.3318 36.7131 58.9883 35.4652 59.0395 34.2021C58.9243 32.9125 59.2195 31.6195 59.8832 30.5053C60.547 29.3911 61.546 28.5118 62.7395 27.9913C63.9133 27.5417 65.1922 27.4355 66.425 27.6851C67.6577 27.9348 68.7926 28.5299 69.6955 29.4001L68.8075 30.5393Z" fill="white"/>
<path d="M74.8632 22.1851V32.4383H75.4182C75.587 32.4463 75.7551 32.411 75.9063 32.3359C76.0574 32.2609 76.1867 32.1485 76.2815 32.0096L79.0565 28.3346C79.1844 28.1551 79.3548 28.0098 79.5527 27.9115C79.7507 27.8132 79.97 27.765 80.1912 27.7711H83.2622L79.6732 32.3036C79.4082 32.6645 79.0727 32.9687 78.6865 33.1978C79.0498 33.4724 79.3521 33.8186 79.5745 34.2146L83.4595 40.2293H80.4379C80.2139 40.245 79.9898 40.1997 79.7899 40.0982C79.5899 39.9968 79.4217 39.843 79.3032 39.6536L76.4665 35.0721C76.381 34.9135 76.2493 34.7843 76.0887 34.7013C75.9281 34.6182 75.746 34.5852 75.5662 34.6066H74.8632V40.2416H71.5332V22.1851H74.8632Z" fill="white"/>
<path d="M88.1709 22.1851V32.4383H88.726C88.8948 32.4463 89.0628 32.411 89.214 32.3359C89.3652 32.2609 89.4944 32.1485 89.5893 32.0096L92.3643 28.3346C92.4921 28.1551 92.6626 28.0098 92.8605 27.9115C93.0584 27.8132 93.2777 27.765 93.499 27.7711H96.57L92.9563 32.3281C92.6913 32.689 92.3557 32.9932 91.9696 33.2223C92.3329 33.4969 92.6352 33.8431 92.8576 34.2391L96.7426 40.2538H93.7333C93.5093 40.2695 93.2853 40.2242 93.0853 40.1227C92.8853 40.0213 92.7171 39.8675 92.5986 39.6781L89.7743 35.0843C89.6887 34.9258 89.5571 34.7966 89.3965 34.7135C89.2358 34.6305 89.0537 34.5975 88.8739 34.6188H88.1709V40.2538H84.804V22.1851H88.1709Z" fill="white"/>
<path d="M102.983 43.5977C102.897 43.8119 102.744 43.9929 102.546 44.1142C102.349 44.2355 102.117 44.2906 101.886 44.2715H99.4189L101.762 39.2L96.7179 27.7095H99.6656C99.8652 27.7004 100.063 27.7534 100.231 27.8609C100.399 27.9685 100.529 28.1254 100.603 28.3097L102.996 34.3C103.168 34.7737 103.316 35.2473 103.44 35.721C103.588 35.2432 103.76 34.7655 103.945 34.2877L106.165 28.322C106.239 28.1427 106.366 27.9896 106.529 27.8825C106.691 27.7755 106.883 27.7195 107.078 27.7217H109.767L102.983 43.5977Z" fill="white"/>
</svg>
