<svg width="100" height="100" viewBox="0 0 100 100" fill="none" xmlns="http://www.w3.org/2000/svg">
<path fill-rule="evenodd" clip-rule="evenodd" d="M50 99C77.062 99 99 77.062 99 50C99 22.938 77.062 1 50 1C22.938 1 1 22.938 1 50C1 77.062 22.938 99 50 99Z" fill="white" stroke="#E8E8E8"/>
<path fill-rule="evenodd" clip-rule="evenodd" d="M40.6705 26H65.962C67.6371 26 69 27.3806 69 29.0776V65.216C69 66.9131 67.6371 68.2937 65.9619 68.2937H63.3664V71.8038C63.3664 73.0148 62.3939 74 61.1984 74H34.168C32.9726 74 32 73.0149 32 71.8038V33.9026C32 32.6916 32.9725 31.7063 34.168 31.7063H37.6326V29.0776C37.6326 27.3806 38.9953 26 40.6705 26ZM34.1879 71.7836H61.1785V43.6182H54.0836C52.7183 43.6182 51.6076 42.4931 51.6076 41.11V33.9225H34.1879V71.7836ZM53.7957 35.4899L59.6316 41.4019H54.0837C53.9249 41.4019 53.7957 41.271 53.7957 41.1102V35.4899ZM63.3665 66.0772H65.962C66.4308 66.0772 66.8121 65.6908 66.812 65.216H66.8119V29.0776C66.8119 28.6028 66.4305 28.2165 65.9618 28.2165H40.6704C40.2017 28.2165 39.8204 28.6029 39.8204 29.0776V31.7064H52.7017C53.003 31.7064 53.2759 31.8298 53.4738 32.0296C53.4741 32.0301 53.4747 32.0304 53.4752 32.0308L63.0462 41.7266C63.2491 41.9323 63.358 42.2052 63.3645 42.4846C63.3651 42.4932 63.3665 42.5012 63.3665 42.5102V66.0772Z" fill="#86ADEF"/>
</svg>
