<svg width="100" height="100" viewBox="0 0 100 100" fill="none" xmlns="http://www.w3.org/2000/svg">
<g id="favorites">
<path id="Oval Copy 3" fill-rule="evenodd" clip-rule="evenodd" d="M50 99C77.062 99 99 77.062 99 50C99 22.938 77.062 1 50 1C22.938 1 1 22.938 1 50C1 77.062 22.938 99 50 99Z" fill="white" stroke="#E8E8E8"/>
<path id="Shape" fill-rule="evenodd" clip-rule="evenodd" d="M73.8296 40.9315C74.2359 42.2082 73.9035 43.5835 72.9617 44.5205L64.7272 52.7139C64.5656 52.8748 64.4919 53.1066 64.53 53.3338L66.4739 64.9031C66.6962 66.2261 66.1734 67.5382 65.1095 68.3274C64.5084 68.7735 63.8049 69 63.0969 69C62.5517 69.0001 62.0039 68.8658 61.4977 68.5942L51.3194 63.1319C51.1194 63.0245 50.8808 63.0245 50.6808 63.1319L40.5027 68.5942C39.3388 69.2187 37.9545 69.1168 36.8905 68.3275C35.8266 67.5384 35.3039 66.2264 35.5262 64.9032L37.47 53.3339C37.5082 53.1067 37.4344 52.8749 37.2728 52.714L29.0384 44.5205C28.0965 43.5835 27.764 42.2082 28.1705 40.9315C28.577 39.6547 29.6378 38.7417 30.9392 38.5488L42.3188 36.8609C42.5422 36.8277 42.7352 36.6845 42.8353 36.4779L47.9244 25.9517C48.5064 24.7478 49.6849 24 51 24C52.3151 24 53.4936 24.7478 54.0756 25.9517L59.1647 36.4778C59.2647 36.6845 59.4578 36.8277 59.6811 36.8608L71.0609 38.5488C72.3623 38.7417 73.4232 39.6547 73.8296 40.9315ZM63.7697 65.377L61.8259 53.8074C61.635 52.6715 62.0036 51.5131 62.8122 50.7086L71.0466 42.5151C71.3223 42.241 71.2598 41.9218 71.2202 41.7973C71.1806 41.6728 71.0473 41.3771 70.6665 41.3207L59.2868 39.6328C58.1696 39.4671 57.2042 38.7512 56.7045 37.7175L51.6154 27.1913V27.1912C51.4449 26.8388 51.1284 26.8009 51.0003 26.8009C50.872 26.8009 50.5555 26.8389 50.3852 27.1912L45.296 37.7174C44.7962 38.7511 43.8307 39.467 42.7135 39.6326L31.334 41.3206C30.9532 41.377 30.8198 41.6726 30.7803 41.7972C30.7406 41.9216 30.6783 42.2407 30.9538 42.515L39.1882 50.7085C39.9969 51.5131 40.3655 52.6715 40.1747 53.8074L38.2308 65.3768C38.1657 65.7639 38.3999 65.9847 38.5036 66.0615C38.6073 66.1384 38.8853 66.2975 39.226 66.1147L49.4042 60.6525C49.9038 60.3846 50.452 60.2504 51.0002 60.2504C51.5484 60.2504 52.0965 60.3846 52.5962 60.6526L62.7745 66.1149C63.115 66.2978 63.3931 66.1385 63.4969 66.0617C63.6006 65.9849 63.8348 65.7641 63.7697 65.377Z" fill="#86ADEF"/>
<path id="Path" d="M66.4614 25.276C65.8775 24.807 65.0606 24.9502 64.6365 25.5956L63.2496 27.7062C62.8255 28.3516 62.9549 29.2551 63.5386 29.724C63.7707 29.9103 64.0393 30 64.3055 30C64.7096 30 65.108 29.7935 65.3635 29.4045L66.7504 27.2939C67.1745 26.6484 67.0451 25.7449 66.4614 25.276Z" fill="#86ADEF"/>
<path id="Path_2" d="M38.7504 27.706L37.3635 25.5954C36.9395 24.9502 36.1225 24.8071 35.5386 25.2758C34.9549 25.7447 34.8255 26.6483 35.2496 27.2937L36.6364 29.4043C36.8921 29.7936 37.2905 30 37.6946 30C37.9609 30 38.2296 29.9103 38.4614 29.7239C39.0451 29.2551 39.1745 28.3516 38.7504 27.706Z" fill="#86ADEF"/>
<path id="Path_3" d="M29.9338 55.8104C29.7043 55.1947 28.9457 54.8576 28.2393 55.0577L25.9296 55.7121C25.2231 55.9122 24.8367 56.5737 25.0662 57.1895C25.2508 57.6851 25.778 58 26.3449 58C26.4826 58 26.6227 57.9813 26.7608 57.9422L29.0705 57.2878C29.7768 57.0877 30.1633 56.4263 29.9338 55.8104Z" fill="#86ADEF"/>
<path id="Path_4" d="M51.5 71C50.6716 71 50 71.5882 50 72.3137V74.6863C50 75.4118 50.6716 76 51.5 76C52.3284 76 53 75.4118 53 74.6863V72.3137C53 71.5881 52.3285 71 51.5 71Z" fill="#86ADEF"/>
<path id="Path_5" d="M76.0705 55.712L73.7608 55.0576C73.0546 54.8577 72.2957 55.1945 72.0662 55.8105C71.8367 56.4264 72.2231 57.0879 72.9296 57.288L75.2393 57.9424C75.3774 57.9814 75.5173 58 75.6551 58C76.222 58 76.7492 57.685 76.9338 57.1894C77.1633 56.5736 76.7768 55.9121 76.0705 55.712Z" fill="#86ADEF"/>
</g>
</svg>
