<svg width="100" height="100" viewBox="0 0 100 100" fill="none" xmlns="http://www.w3.org/2000/svg">
<g id="file">
<path id="Oval Copy 4" fill-rule="evenodd" clip-rule="evenodd" d="M50 99C77.062 99 99 77.062 99 50C99 22.938 77.062 1 50 1C22.938 1 1 22.938 1 50C1 77.062 22.938 99 50 99Z" fill="white" stroke="#E8E8E8"/>
<path id="Shape" fill-rule="evenodd" clip-rule="evenodd" d="M68.9983 33.7585L68.9979 33.7475L68.9972 33.7329L68.9966 33.7233C68.9931 33.6767 68.9884 33.631 68.979 33.5857V33.5852C68.9696 33.5399 68.9563 33.495 68.9413 33.4514C68.9374 33.4405 68.9335 33.4296 68.9292 33.4186C68.9134 33.3771 68.8954 33.3364 68.8748 33.297L68.8726 33.293L68.8714 33.2907C68.8491 33.2495 68.8233 33.2105 68.7955 33.1723C68.7906 33.1655 68.7855 33.1589 68.7804 33.1522L68.774 33.1438C68.7444 33.106 68.7136 33.0695 68.6788 33.0355L58.7451 23.3147C58.7104 23.2807 58.6731 23.2505 58.6345 23.2216L58.6246 23.2143C58.618 23.2095 58.6114 23.2046 58.6049 23.2002C58.5659 23.1729 58.5264 23.1477 58.4848 23.1263C58.4835 23.1255 58.4821 23.125 58.4808 23.1244C58.4792 23.1237 58.4776 23.123 58.4762 23.1221C58.4368 23.102 58.3956 23.0848 58.354 23.0692C58.3424 23.065 58.3313 23.0613 58.3193 23.0575C58.2747 23.0428 58.2297 23.0298 58.1829 23.0206H58.1821C58.1362 23.0117 58.0894 23.0067 58.0423 23.0034L58.0243 23.0025L58.0063 23.0017L57.9913 23.0009L57.9913 23.0009C57.9839 23.0005 57.9764 23 57.969 23H33.0977C32.4914 23 32 23.4809 32 24.0742V70.0532C32 70.6466 32.4914 71.1274 33.0977 71.1274H49.6248V76.9257C49.6248 77.3164 49.8418 77.6764 50.1913 77.8656C50.5412 78.0549 50.9678 78.0436 51.3062 77.8358L55.487 75.2691L59.6679 77.8358C59.8458 77.9449 60.0487 77.9999 60.2515 77.9999C60.4342 77.9999 60.6173 77.9554 60.7828 77.8661C61.1323 77.6768 61.3492 77.3168 61.3492 76.9257V71.1274H67.9023C68.5086 71.1274 69 70.6466 69 70.0532V33.795C69 33.7878 68.9995 33.7805 68.9991 33.7732L68.9983 33.7585ZM59.0667 26.6679L65.2522 32.7208H59.0667V26.6679ZM48.8774 55.5018C48.8804 55.639 49.006 55.9743 49.0832 56.1795L49.0843 56.1824C49.247 56.6168 49.4314 57.1093 49.4314 57.6553C49.4314 58.202 49.2466 58.6955 49.0832 59.1306L49.0829 59.1314C49.0061 59.3367 48.8808 59.6717 48.8778 59.8083C48.9636 59.9124 49.2612 60.0966 49.443 60.209C49.8345 60.4507 50.2779 60.7252 50.5991 61.154C50.9237 61.5875 51.0562 62.0881 51.1724 62.5295L51.1727 62.5309C51.2238 62.724 51.3059 63.0346 51.3761 63.1522C51.4151 63.1602 51.4957 63.1715 51.6479 63.1715C51.7706 63.1715 51.9073 63.1648 52.0518 63.1577L52.0604 63.1573C52.2241 63.1494 52.3933 63.1413 52.569 63.1413C52.9643 63.1413 53.2834 63.185 53.5728 63.2794C54.076 63.4431 54.4789 63.7597 54.8349 64.0395L54.84 64.0435C55.0342 64.1971 55.3579 64.4518 55.487 64.4744C55.6161 64.4518 55.9403 64.1971 56.1345 64.0435L56.1363 64.0421L56.1364 64.042C56.4927 63.7617 56.8969 63.4436 57.4016 63.2794C57.6911 63.185 58.0097 63.1413 58.4055 63.1413C58.5816 63.1413 58.7511 63.1495 58.9148 63.1573L58.9222 63.1577C59.0671 63.1648 59.2039 63.1715 59.3266 63.1715C59.4788 63.1715 59.5594 63.1602 59.5984 63.1522C59.6683 63.0343 59.7511 62.7221 59.8017 62.5295C59.9183 62.0881 60.0508 61.5875 60.3754 61.154C60.6966 60.7252 61.14 60.4507 61.5315 60.209L61.5414 60.2028C61.724 60.0895 62.0124 59.9105 62.0966 59.8083C62.0936 59.6711 61.968 59.3358 61.8908 59.1306L61.8903 59.1293C61.7275 58.6941 61.5431 58.201 61.5431 57.6548C61.5431 57.1081 61.7279 56.6146 61.8912 56.1795L61.8923 56.1766C61.9692 55.9712 62.0937 55.6384 62.0966 55.5018C62.0124 55.3996 61.724 55.2205 61.5414 55.1072L61.5315 55.101L61.5305 55.1004C61.1392 54.8585 60.6963 54.5846 60.3754 54.1561C60.0508 53.7226 59.9183 53.222 59.8017 52.7806C59.7511 52.5875 59.6687 52.2758 59.5984 52.1579C59.5594 52.1495 59.4788 52.1386 59.3266 52.1386C59.2039 52.1386 59.0671 52.1453 58.9222 52.1524L58.9148 52.1528L58.9147 52.1528C58.7511 52.1606 58.5816 52.1688 58.4055 52.1688C58.0097 52.1688 57.6911 52.1251 57.4016 52.0307C56.8961 51.8662 56.4913 51.5477 56.1345 51.2666L56.1302 51.2632C55.9325 51.1076 55.6066 50.8511 55.4819 50.8352C55.3674 50.8511 55.0392 51.1094 54.8417 51.2649L54.8417 51.2649L54.8417 51.2649L54.8395 51.2666C54.4828 51.5477 54.0784 51.8662 53.5728 52.0307C53.2834 52.1251 52.9643 52.1688 52.569 52.1688C52.3932 52.1688 52.2249 52.1607 52.0615 52.1529L52.0518 52.1524C51.9069 52.1453 51.7701 52.1386 51.6479 52.1386C51.4957 52.1386 51.4146 52.1499 51.3761 52.1579C51.3059 52.2755 51.2238 52.5861 51.1727 52.7792L51.1724 52.7806L51.172 52.7818C51.0555 53.2229 50.9234 53.723 50.5991 54.1561C50.2774 54.5849 49.8341 54.8594 49.443 55.101C49.2607 55.2135 48.9632 55.3977 48.8774 55.5018ZM59.1537 74.9837L59.1533 74.9835V65.3166C59.0371 65.3137 58.9226 65.309 58.8116 65.3036C58.6662 65.2965 58.529 65.2897 58.405 65.2897C58.2104 65.2897 58.1272 65.3074 58.0946 65.3179C57.9647 65.3601 57.7146 65.557 57.513 65.7158L57.5129 65.7158L57.511 65.7173C56.9986 66.121 56.3609 66.6233 55.487 66.6233C54.6131 66.6233 53.9755 66.121 53.4631 65.7173L53.4611 65.7158L53.4611 65.7158C53.2595 65.557 53.0094 65.3601 52.879 65.3174C52.8469 65.3069 52.7637 65.2893 52.569 65.2893C52.4451 65.2893 52.3078 65.296 52.1625 65.3036C52.0514 65.309 51.9369 65.3132 51.8203 65.3166V74.9837L54.9034 73.0908C55.2602 72.8722 55.7139 72.8722 56.0706 73.0908L59.1533 74.9835V74.9837H59.1537ZM61.3492 64.4509V68.979H66.8045V34.8693H57.969C57.3626 34.8693 56.8712 34.3884 56.8712 33.795V25.1484H34.1955V68.979H49.6252V64.4509C49.2989 64.0175 49.1621 63.5034 49.0468 63.067C48.9863 62.8379 48.9036 62.5245 48.8285 62.4242C48.753 62.3239 48.4743 62.151 48.2702 62.0251L48.2698 62.0249C47.73 61.6909 47.0579 61.2751 46.7904 60.4893C46.5263 59.7132 46.801 58.9802 47.0219 58.3911L47.0219 58.3908C47.1223 58.1235 47.2359 57.8202 47.2359 57.6548C47.2359 57.4895 47.1223 57.1865 47.0219 56.9192L47.0219 56.919C46.801 56.3299 46.5263 55.5969 46.7904 54.8207C47.058 54.0348 47.7299 53.619 48.2702 53.2849C48.4739 53.1591 48.753 52.9862 48.8285 52.8859C48.9036 52.7856 48.9863 52.4722 49.0468 52.243C49.2046 51.6451 49.4014 50.9007 50.0742 50.4181C50.6089 50.0346 51.2285 49.9901 51.6479 49.9901C51.8228 49.9901 51.9911 49.9982 52.154 50.0061L52.1625 50.0065C52.3078 50.014 52.4455 50.0208 52.569 50.0208C52.7637 50.0208 52.8473 50.0031 52.8794 49.9926C53.0085 49.9507 53.2561 49.7557 53.457 49.5975L53.4631 49.5927L53.4634 49.5925C53.9758 49.1893 54.6137 48.6872 55.487 48.6872C56.3598 48.6872 56.9969 49.1882 57.5094 49.5911L57.5114 49.5927C57.7134 49.7522 57.9647 49.9503 58.095 49.9926C58.1272 50.0031 58.2104 50.0208 58.4055 50.0208C58.529 50.0208 58.6662 50.014 58.8116 50.0069C58.9771 49.9985 59.1486 49.9901 59.3261 49.9901C59.7459 49.9901 60.3656 50.0346 60.9007 50.4181C61.573 50.9006 61.7694 51.6449 61.9272 52.2429L61.9273 52.243C61.9877 52.4722 62.0705 52.7856 62.146 52.8863C62.221 52.9862 62.5002 53.1591 62.7038 53.2849C63.2441 53.619 63.9165 54.0348 64.1836 54.8207C64.4478 55.5966 64.1729 56.3301 63.9521 56.9192C63.8517 57.1865 63.7381 57.4895 63.7381 57.6548C63.7381 57.8202 63.8517 58.1235 63.9521 58.3908L63.9522 58.3911C64.173 58.9802 64.4478 59.7132 64.1836 60.4889C63.9165 61.2753 63.2441 61.6911 62.7038 62.0251L62.7031 62.0256C62.4995 62.1514 62.2209 62.3236 62.146 62.4242C62.0705 62.5245 61.9877 62.8379 61.9273 63.067C61.8119 63.5034 61.6756 64.017 61.3492 64.4509Z" fill="#86ADEF"/>
<path id="Path" d="M38.075 34H51.925C52.5183 34 53 33.5523 53 33C53 32.4477 52.5183 32 51.925 32H38.075C37.4812 32 37 32.4477 37 33C37 33.5523 37.4817 34 38.075 34Z" fill="#86ADEF"/>
<path id="Path_2" d="M62.9187 38H39.0813C38.4841 38 38 38.4477 38 39C38 39.5523 38.4841 40 39.0813 40H62.9187C63.5159 40 64 39.5523 64 39C64 38.4477 63.5159 38 62.9187 38Z" fill="#86ADEF"/>
<path id="Path_3" d="M57.9024 43H38.0976C37.4913 43 37 43.448 37 44C37 44.5523 37.4913 45 38.0976 45H57.9024C58.5087 45 59 44.5523 59 44C59 43.448 58.5087 43 57.9024 43Z" fill="#86ADEF"/>
<path id="Path_4" d="M63 43C62.4492 43 62 43.6738 62 44.5C62 45.3262 62.4492 46 63 46C63.5512 46 64 45.3262 64 44.5C64 43.6738 63.5512 43 63 43Z" fill="#86ADEF"/>
</g>
</svg>
