<svg width="100" height="100" viewBox="0 0 100 100" fill="none" xmlns="http://www.w3.org/2000/svg">
<g id="delivery-truck">
<path id="Oval Copy 5" fill-rule="evenodd" clip-rule="evenodd" d="M50 99C77.062 99 99 77.062 99 50C99 22.938 77.062 1 50 1C22.938 1 1 22.938 1 50C1 77.062 22.938 99 50 99Z" fill="white" stroke="#E8E8E8"/>
<path id="Shape" fill-rule="evenodd" clip-rule="evenodd" d="M77.7132 50.0449L70.9758 42.325C70.756 42.0734 70.4388 41.9289 70.1054 41.9289H64.4951V37.1613C64.4951 36.5199 63.977 36 63.3381 36H39.4418C38.8029 36 38.2848 36.5199 38.2848 37.1613V38.7282H27.157C26.5181 38.7282 26 39.2481 26 39.8895C26 40.5309 26.5181 41.0508 27.157 41.0508H38.2848V56.1044H31.5865C30.9476 56.1044 30.4295 56.6243 30.4295 57.2657C30.4295 57.907 30.9476 58.4269 31.5865 58.4269H38.2848V59.6071C38.2848 60.2485 38.8029 60.7684 39.4418 60.7684H41.8568C42.3656 62.6288 44.0642 64 46.0772 64C48.0901 64 49.7888 62.6288 50.2977 60.7684H65.736V60.7683C66.2447 62.6287 67.9434 63.9999 69.9564 63.9999C71.9693 63.9999 73.668 62.6287 74.1769 60.7683H76.843C77.4819 60.7683 78 60.2484 78 59.607V50.81C77.9999 50.5286 77.8979 50.2566 77.7132 50.0449ZM46.0772 61.6775C44.9398 61.6775 44.0146 60.7487 44.0146 59.6071C44.0146 58.4655 44.9398 57.5368 46.0772 57.5368C47.2145 57.5368 48.1399 58.4655 48.1399 59.6071C48.1399 60.7487 47.2145 61.6775 46.0772 61.6775ZM46.0769 55.2142C48.0899 55.2142 49.7887 56.5855 50.2975 58.4458H62.1807V38.3224H40.5986V58.4458H41.8565C42.3654 56.5855 44.064 55.2142 46.0769 55.2142ZM69.9561 61.6775C68.8188 61.6775 67.8935 60.7487 67.8935 59.6071C67.8935 58.4655 68.8188 57.5368 69.9561 57.5368C71.0935 57.5368 72.0189 58.4655 72.0189 59.6071C72.0189 60.7487 71.0936 61.6775 69.9561 61.6775ZM74.1767 58.4458H75.6858V51.2467L69.5805 44.2514H64.4948V58.4458H65.7357C66.2446 56.5855 67.9432 55.2142 69.9561 55.2142C71.9691 55.2142 73.6679 56.5855 74.1767 58.4458Z" fill="#86ADEF"/>
<path id="Path" d="M27.8159 56H27.1841C26.5302 56 26 56.6715 26 57.5C26 58.3285 26.5302 59 27.1841 59H27.8159C28.4698 59 29 58.3285 29 57.5C29 56.6715 28.4699 56 27.8159 56Z" fill="#86ADEF"/>
<path id="Path_2" d="M32.8991 47H21.1009C20.493 47 20 47.5596 20 48.25C20 48.9404 20.493 49.5 21.1009 49.5H32.8991C33.507 49.5 34 48.9404 34 48.25C34 47.5596 33.507 47 32.8991 47Z" fill="#86ADEF"/>
</g>
</svg>
