<svg width="156" height="44" viewBox="0 0 156 44" fill="none" xmlns="http://www.w3.org/2000/svg">
<path d="M38.12 37.54C33.88 41.74 28.72 43.84 22.64 43.84C16.56 43.84 11.4 41.74 7.16 37.54C2.92 33.34 0.8 28.16 0.8 22C0.8 15.84 2.92 10.66 7.16 6.46C11.4 2.26 16.56 0.159997 22.64 0.159997C28.72 0.159997 33.88 2.26 38.12 6.46C42.36 10.66 44.48 15.84 44.48 22C44.48 28.16 42.36 33.34 38.12 37.54ZM13.88 31C16.24 33.32 19.16 34.48 22.64 34.48C26.12 34.48 29.02 33.32 31.34 31C33.7 28.68 34.88 25.68 34.88 22C34.88 18.32 33.7 15.32 31.34 13C29.02 10.68 26.12 9.52 22.64 9.52C19.16 9.52 16.24 10.68 13.88 13C11.56 15.32 10.4 18.32 10.4 22C10.4 25.68 11.56 28.68 13.88 31ZM75.3852 10.24H59.4852V18.34H75.0852V27.58H59.4852V43H49.8852V0.999997H75.3852V10.24ZM97.857 0.999997C103.657 0.999997 108.497 3.02 112.377 7.06C116.297 11.06 118.257 16.04 118.257 22C118.257 27.96 116.297 32.96 112.377 37C108.497 41 103.657 43 97.857 43H81.057V0.999997H97.857ZM97.857 33.76C101.177 33.76 103.857 32.7 105.897 30.58C107.977 28.42 109.017 25.56 109.017 22C109.017 18.44 107.977 15.6 105.897 13.48C103.857 11.32 101.177 10.24 97.857 10.24H90.657V33.76H97.857ZM150.902 39.94C147.862 42.54 143.982 43.84 139.262 43.84C134.542 43.84 130.662 42.54 127.622 39.94C124.582 37.34 123.062 33.84 123.062 29.44V0.999997H132.662V28.6C132.662 32.52 134.862 34.48 139.262 34.48C143.662 34.48 145.862 32.52 145.862 28.6V0.999997H155.462V29.44C155.462 33.84 153.942 37.34 150.902 39.94Z" fill="white" fill-opacity="0.12653"/>
</svg>
